<?xml version="1.0" standalone="no"?>
<!DOCTYPE svg PUBLIC "-//W3C//DTD SVG 20010904//EN"
 "http://www.w3.org/TR/2001/REC-SVG-20010904/DTD/svg10.dtd">
<svg version="1.0" xmlns="http://www.w3.org/2000/svg"
 width="486.000000pt" height="486.000000pt" viewBox="0 0 486.000000 486.000000"
 preserveAspectRatio="xMidYMid meet">
<metadata>
Created by potrace 1.14, written by Peter Selinger 2001-2017
</metadata>
<g transform="translate(0.000000,486.000000) scale(0.100000,-0.100000)"
fill="#000000" stroke="none">
<path d="M1729 4359 c-233 -24 -367 -137 -424 -354 -28 -109 -38 -278 -32
-555 4 -211 9 -284 25 -357 59 -271 222 -393 527 -393 299 0 460 114 526 371
19 75 22 119 26 398 4 213 1 345 -7 410 -39 314 -172 453 -460 481 -52 5 -97
9 -100 8 -3 0 -39 -4 -81 -9z m180 -254 c100 -51 131 -185 131 -566 0 -401
-30 -533 -134 -580 -52 -24 -110 -24 -162 0 -47 22 -80 68 -100 144 -23 85
-37 336 -30 540 11 319 43 429 136 466 38 15 127 13 159 -4z"/>
<path d="M60 4334 c0 -4 95 -242 210 -530 l210 -523 0 -275 0 -276 170 0 170
0 0 281 0 281 221 516 c122 284 223 520 226 525 2 4 -74 7 -170 7 l-174 0
-123 -327 c-68 -181 -126 -332 -130 -336 -4 -4 -60 143 -126 328 l-119 335
-182 0 c-101 0 -183 -3 -183 -6z"/>
<path d="M2550 3738 c0 -494 3 -616 15 -673 51 -241 235 -365 538 -365 294 1
480 133 532 375 12 57 15 179 15 668 l0 597 -170 0 -169 0 -3 -617 c-3 -603
-3 -619 -24 -663 -48 -103 -167 -148 -269 -101 -48 22 -78 53 -102 106 -17 37
-18 88 -21 658 l-3 617 -169 0 -170 0 0 -602z"/>
<path d="M3820 3536 l0 -806 170 0 170 0 0 330 0 330 78 0 c94 0 141 -12 183
-47 56 -47 62 -76 69 -323 4 -141 12 -237 19 -257 l13 -33 159 0 c173 0 176 0
170 15 -13 33 -22 136 -30 330 -6 125 -15 237 -22 259 -28 84 -119 155 -224
175 -23 5 -33 10 -25 13 8 3 38 14 65 23 35 12 67 35 107 75 74 76 98 147 98
294 0 166 -44 278 -136 348 -92 71 -97 72 -501 76 l-363 3 0 -805z m587 528
c53 -40 68 -80 68 -179 0 -111 -21 -173 -72 -212 -33 -25 -45 -28 -139 -31
l-104 -4 0 227 0 227 109 -4 c92 -3 114 -7 138 -24z"/>
<path d="M530 2564 c-189 -51 -288 -160 -337 -369 -16 -70 -18 -126 -18 -445
0 -315 2 -375 18 -441 62 -265 228 -388 523 -389 214 0 356 66 423 198 33 64
60 179 67 279 l7 93 -166 0 c-192 0 -173 13 -180 -120 -5 -94 -33 -161 -79
-190 -27 -17 -44 -20 -87 -16 -91 8 -138 59 -167 179 -23 95 -32 566 -14 718
23 200 79 279 198 279 90 0 127 -55 138 -205 l7 -85 165 0 165 0 -6 103 c-9
158 -44 245 -132 326 -82 75 -170 101 -345 100 -77 0 -146 -6 -180 -15z"/>
<path d="M1581 2293 c-41 -148 -141 -509 -223 -803 -81 -294 -148 -536 -148
-537 0 -2 75 -2 167 -1 l167 3 45 173 44 172 231 -2 230 -3 36 -145 c20 -80
40 -157 43 -172 l7 -28 179 0 178 0 -33 117 c-18 65 -80 296 -139 513 -59 217
-137 508 -175 645 -37 138 -73 269 -79 293 l-12 42 -222 0 -222 0 -74 -267z
m354 -384 c42 -178 78 -332 81 -341 5 -17 -7 -18 -156 -18 -149 0 -161 1 -156
18 8 29 146 658 146 667 0 32 19 -40 85 -326z"/>
<path d="M2600 1756 l0 -806 168 0 167 0 -3 331 -3 331 98 -4 c118 -4 167 -27
204 -92 22 -38 24 -55 30 -266 4 -124 12 -242 18 -262 l12 -38 166 0 166 0 -7
42 c-12 73 -26 268 -26 375 0 56 -5 124 -11 152 -23 108 -102 183 -219 207
-30 6 -48 14 -40 17 140 47 183 79 228 167 61 122 65 290 11 436 -29 78 -103
152 -184 185 -59 23 -68 24 -417 27 l-358 3 0 -805z m576 528 c56 -41 68 -68
72 -163 5 -99 -6 -147 -46 -200 -36 -49 -78 -62 -180 -59 l-87 3 -3 210 c-1
115 0 216 3 223 4 11 27 13 110 10 85 -3 109 -7 131 -24z"/>
<path d="M3720 1095 l0 -145 135 0 135 0 0 145 0 145 -135 0 -135 0 0 -145z"/>
</g>
</svg>
